<?xml version="1.0" encoding="UTF-8" standalone="no"?><!DOCTYPE svg PUBLIC "-//W3C//DTD SVG 1.1//EN" "http://www.w3.org/Graphics/SVG/1.1/DTD/svg11.dtd"><svg width="100%" height="100%" viewBox="0 0 288 130" version="1.1" xmlns="http://www.w3.org/2000/svg" xmlns:xlink="http://www.w3.org/1999/xlink" xml:space="preserve" xmlns:serif="http://www.serif.com/" style="fill-rule:evenodd;clip-rule:evenodd;stroke-linejoin:round;stroke-miterlimit:1.41421;"><g><text x="137.451px" y="97.374px" style="font-family:'AgencyFB-Bold', 'Agency FB', sans-serif;font-weight:700;font-stretch:condensed;font-size:26.738px;fill:#021f42;stroke:#021f42;stroke-width:0.24px;">KonGeoS  2018</text><text x="137.287px" y="122.439px" style="font-family:'AgencyFB-Reg', 'Agency FB', sans-serif;font-stretch:condensed;font-size:25.252px;fill:#021f42;stroke:#021f42;stroke-width:0.24px;">München</text><path d="M36.785,124.157l-24.681,-57.337l80.41,-34.471l33.084,75.869c0,0 -37.98,15.404 -37.847,15.535l-50.966,0.404Z" style="fill:#e40000;fill-rule:nonzero;stroke:#e40000;stroke-width:4.38px;stroke-linejoin:miter;stroke-miterlimit:10;"/><path d="M49.725,126.27l0,-22.416l1.082,0l0,-1.279l0.246,-0.245l0,-6.124l0.147,-0.713l0,-7.697l0.394,-1.008l-0.026,-0.96l0.222,-0.91l-0.025,-2.311l-0.271,-1.205l0.049,-0.54c0,0 -1.083,-2.805 0.417,-5.018c1.501,-2.213 3.71,-2.45 3.71,-2.45c0,0 1.033,-0.295 1.04,-0.841c0.008,-0.545 -0.31,-0.697 -0.33,-1.175c-0.018,-0.477 0.477,-0.477 0.477,-0.477c0,0 0.496,0 0.478,0.477c-0.019,0.478 -0.337,0.631 -0.329,1.175c0.007,0.545 1.041,0.841 1.041,0.841c0,0 2.209,0.237 3.709,2.45c1.501,2.212 0.418,5.018 0.418,5.018l0.049,0.54l-0.27,1.205l-0.025,2.311l0.222,0.91l-0.025,0.96l0.393,1.008l0,7.697l0.147,0.713l0,6.124l0.247,0.245l0,1.279l1.083,0l0,1.587l4.445,0l-0.291,0l4.443,0l0,-1.587l1.081,0l0,-1.279l0.247,-0.245l0,-6.124l0.147,-0.713l0,-7.697l0.394,-1.008l-0.025,-0.96l0.222,-0.91l-0.026,-2.311l-0.27,-1.205l0.049,-0.54c0,0 -1.083,-2.805 0.419,-5.018c1.5,-2.213 3.71,-2.45 3.71,-2.45c0,0 1.033,-0.295 1.04,-0.841c0.007,-0.545 -0.311,-0.697 -0.33,-1.175c-0.019,-0.477 0.477,-0.477 0.477,-0.477c0,0 0.495,0 0.477,0.477c-0.018,0.478 -0.336,0.631 -0.33,1.175c0.007,0.545 1.04,0.841 1.04,0.841c0,0 2.21,0.237 3.71,2.45c1.5,2.212 0.417,5.018 0.417,5.018l0.049,0.54l-0.271,1.205l-0.025,2.311l0.222,0.91l-0.025,0.96l0.394,1.008l0,7.697l0.147,0.713l0,6.124l0.245,0.245l0,1.279l1.082,0l0,22.061" style="fill:#021f42;fill-rule:nonzero;stroke:#021f42;stroke-width:2.16px;stroke-linejoin:miter;stroke-miterlimit:10;"/><path d="M36.959,126.27c0,0 0.491,-17.982 0.697,-20.721c0.205,-2.738 0.533,-19.134 0.655,-21.094c0.123,-1.961 0.533,-13.252 0.533,-14.265l0,-1.318l-0.533,-0.542l-1.352,-1.148c0,0 -1.591,-0.189 -1.919,-0.313c-0.329,-0.125 -0.86,-0.207 -0.86,-0.449c0,-0.242 0.567,-0.566 0.941,-0.675c0.373,-0.108 0.767,-0.155 0.767,-0.155l-0.033,-1.283c0,0 -1.627,-0.361 -1.675,-0.897c-0.045,-0.535 1.23,-0.788 1.23,-0.788l-0.06,-1.528c0,0 -1.166,-0.348 -1.171,-0.699c-0.004,-0.348 1.306,-1.058 3.245,-1.182c1.939,-0.124 1.42,-0.033 1.42,-0.033l-0.041,-0.665l-1.925,-1.487c0,0 -1.979,-0.384 -2.375,-0.71c-0.395,-0.326 -0.324,-0.563 -0.324,-0.563l-0.005,-4.688c0,0 0.029,-0.237 0.412,-0.45c0.382,-0.212 2.429,-0.812 2.989,-0.833c0.56,-0.023 1.433,0 1.433,0l0,-2.355c0,0 -2.662,-0.202 -2.839,-0.957c-0.177,-0.755 3.057,-1.173 3.057,-1.173l-0.069,-4.485l0.492,-0.846l0,-1.644l-0.068,-8.046c0,0 -0.013,-0.585 0.286,-0.664c0.3,-0.079 0.164,-1.668 0.164,-1.668l0.177,-3.673l0.068,-1.859l0,-5.341l0,-1.652l0.955,0l0,6.997l0.068,1.859l0.177,3.672c0,0 -0.136,1.589 0.165,1.668c0.298,0.078 0.285,0.665 0.285,0.665l-0.068,8.045l0,1.645l0.493,0.845l-0.068,4.485c0,0 3.234,0.416 3.057,1.172c-0.177,0.755 -2.838,0.957 -2.838,0.957l0,2.355c0,0 0.874,-0.023 1.432,0c0.56,0.022 2.607,0.619 2.99,0.833c0.382,0.215 0.411,0.45 0.411,0.45l-0.005,4.689c0,0 0.073,0.237 -0.323,0.563c-0.396,0.326 -2.376,0.71 -2.376,0.71l-1.925,1.487l-0.04,0.665c0,0 -0.519,-0.089 1.419,0.034c1.939,0.124 3.248,0.834 3.245,1.182c-0.003,0.349 -1.169,0.699 -1.169,0.699l-0.063,1.528c0,0 1.277,0.254 1.23,0.788c-0.046,0.536 -1.675,0.897 -1.675,0.897l-0.033,1.283c0,0 0.393,0.046 0.768,0.154c0.376,0.108 0.94,0.433 0.94,0.675c0,0.242 -0.533,0.325 -0.859,0.448c-0.328,0.125 -1.92,0.313 -1.92,0.313l-1.351,1.148l-0.533,0.541l0,1.318c0,1.013 0.409,12.304 0.533,14.264c0.123,1.96 0.449,18.354 0.654,21.094c0.205,2.736 0.697,20.721 0.697,20.721" style="fill:#021f42;fill-rule:nonzero;stroke:#021f42;stroke-width:1.32px;stroke-linejoin:miter;stroke-miterlimit:10;"/></g></svg>